<?xml version="1.0" encoding="utf-8"?>
<!-- Generator: Adobe Illustrator 26.0.1, SVG Export Plug-In . SVG Version: 6.00 Build 0)  -->
<svg version="1.1" id="Capa_1" xmlns="http://www.w3.org/2000/svg" xmlns:xlink="http://www.w3.org/1999/xlink" x="0px" y="0px"
	 viewBox="0 0 65 65" style="enable-background:new 0 0 65 65;" xml:space="preserve">
<style type="text/css">
	.st0{opacity:0.2;}
	.st1{fill-rule:evenodd;clip-rule:evenodd;fill:#372FFF;}
</style>
<g>
	<g class="st0">
		<path class="st1" d="M10.8,0h43.3c6,0,10.8,4.9,10.8,10.8v43.3c0,6-4.9,10.8-10.8,10.8H10.8c-6,0-10.8-4.9-10.8-10.8V10.9
			c0-2.9,1.1-5.6,3.2-7.7S7.9,0,10.8,0L10.8,0z"/>
	</g>
</g>
<path d="M26.9,39.2v-8.3c1.9-0.3,3.3-1.9,3.3-3.8v-3.4c0-0.4-0.2-0.6-0.6-0.6h-0.8v-3c0-0.4-0.2-0.6-0.6-0.6c-0.4,0-0.6,0.2-0.6,0.6
	v3h-2.8v-3c0-0.4-0.2-0.6-0.6-0.6c-0.4,0-0.6,0.2-0.6,0.6v3h-0.8c-0.4,0-0.6,0.2-0.6,0.6V27c0,2,1.5,3.6,3.4,3.8v8.3
	c0,3.6,2.9,6.4,6.4,6.4s6.4-2.9,6.4-6.4V23.6c0-0.4-0.2-0.6-0.6-0.6c-0.4,0-0.6,0.2-0.6,0.6v15.5c0,2.9-2.3,5.3-5.3,5.3
	S26.9,42,26.9,39.2z M23.5,27v-2.8H29V27c0,1.5-1.2,2.6-2.6,2.6h-0.2C24.7,29.7,23.5,28.5,23.5,27z"/>
<path d="M11.3,32.4c0,10.5,7.9,19.2,18.2,20.2h0.1c0.3,0,0.5-0.2,0.6-0.5c0.1-0.3-0.2-0.6-0.5-0.6c-9.7-1-17.2-9.2-17.2-19
	s7.6-18.1,17.3-19l-2.1,2.1c-0.2,0.2-0.2,0.6,0,0.8c0.1,0.1,0.3,0.2,0.4,0.2s0.3-0.1,0.4-0.2l3.1-3.1c0.2-0.2,0.2-0.6,0-0.8
	l-3.1-3.1c-0.2-0.2-0.6-0.2-0.8,0s-0.2,0.6,0,0.8l2.1,2.1C19.4,13,11.3,21.8,11.3,32.4z"/>
<path d="M33.7,12.1c-0.4,0-0.6,0.2-0.6,0.5c-0.1,0.3,0.2,0.6,0.5,0.6c9.8,1,17.2,9.1,17.2,19c0,9.8-7.6,18.1-17.3,19l2.1-2.1
	c0.2-0.2,0.2-0.6,0-0.8s-0.6-0.2-0.8,0l-3.1,3.1c-0.2,0.2-0.2,0.6,0,0.8l3.1,3.1c0.1,0.1,0.3,0.2,0.4,0.2s0.3-0.1,0.4-0.2
	c0.2-0.2,0.2-0.6,0-0.8l-2.1-2.2c10.4-0.9,18.5-9.7,18.5-20.2S44.1,13.2,33.7,12.1z"/>
</svg>
