<?xml version="1.0" encoding="utf-8"?>
<!-- Generator: Adobe Illustrator 26.0.1, SVG Export Plug-In . SVG Version: 6.00 Build 0)  -->
<svg version="1.1" id="Capa_1" xmlns="http://www.w3.org/2000/svg" xmlns:xlink="http://www.w3.org/1999/xlink" x="0px" y="0px"
	 viewBox="0 0 65 65" style="enable-background:new 0 0 65 65;" xml:space="preserve">
<style type="text/css">
	.st0{opacity:0.2;}
	.st1{fill-rule:evenodd;clip-rule:evenodd;fill:#372FFF;}
</style>
<g>
	<g class="st0">
		<path class="st1" d="M10.8,0h43.3c6,0,10.8,4.9,10.8,10.8v43.3c0,6-4.9,10.8-10.8,10.8H10.8c-6,0-10.8-4.9-10.8-10.8V10.9
			c0-2.9,1.1-5.6,3.2-7.7S7.9,0,10.8,0L10.8,0z"/>
	</g>
</g>
<g>
	<path d="M42.3,19.3v-4.5h0.7c1.2,0,2.2-1,2.2-2.2s-1-2.2-2.2-2.2H22.4c-1.2,0-2.2,1-2.2,2.2s1,2.2,2.2,2.2h0.7v4.5
		c-2.5,0.4-4.4,2.5-4.4,5.1v21.4c0,2.6,1.9,4.7,4.4,5.1v3c0,0.4,0.3,0.7,0.7,0.7h17.7c0.4,0,0.7-0.3,0.7-0.7v-3
		c2.5-0.4,4.4-2.5,4.4-5.1V24.5C46.7,21.9,44.9,19.7,42.3,19.3z M22.4,13.4c-0.4,0-0.7-0.3-0.7-0.7c0-0.4,0.3-0.7,0.7-0.7h20.7
		c0.4,0,0.7,0.3,0.7,0.7c0,0.4-0.3,0.7-0.7,0.7H22.4z M40.8,14.9v4.4h-1.5v-4.4H40.8z M34.2,16.3h-3c-1.2,0-2.2,1-2.2,2.2v0.7h-1.5
		v-4.4h10.3v4.4h-1.5v-0.7C36.4,17.3,35.4,16.3,34.2,16.3z M34.9,18.5v0.7h-4.4v-0.7c0-0.4,0.3-0.7,0.7-0.7h3
		C34.6,17.8,34.9,18.1,34.9,18.5z M26.1,14.9v4.4h-1.5v-4.4H26.1z M40.8,53.3H24.6V51h16.2V53.3z M45.3,45.9c0,2-1.7,3.7-3.7,3.7
		H23.9c-2,0-3.7-1.7-3.7-3.7V24.5c0-2,1.7-3.7,3.7-3.7h17.7c2,0,3.7,1.7,3.7,3.7V45.9z"/>
	<path d="M39.2,32.2c-0.2-0.3-0.7-0.4-1-0.2c0,0,0,0,0,0l-0.7,0.5c0.3-1.6-0.2-3.2-1.4-4.4c-0.9-1-1.9-1.9-3-2.7
		c-0.3-0.2-0.7-0.2-1,0.1c-0.3,0.3-8.3,8.3-8.3,13.1c0,4.7,3.7,8.6,8.3,8.8c0.3,0,0.7,0,1,0c4.7-0.3,8.3-4.1,8.3-8.8
		C41.6,36.7,40.7,34.3,39.2,32.2z M32.7,45.9c-2,0-3.7-1.7-3.7-3.7c0-0.6,0.1-1.3,0.3-1.9l1.5,1c0.2,0.2,0.6,0.2,0.8,0
		c0.2-0.2,0.4-0.5,0.3-0.8l-0.3-1.1c-0.2-1.1,0-2.3,0.7-3.2c0.1-0.1,0.2-0.2,0.3-0.3c1.6,1.9,3.7,4.9,3.7,6.3
		C36.4,44.2,34.8,45.9,32.7,45.9z M37.5,44.1c0.2-0.6,0.4-1.3,0.4-1.9c0-2.7-4.2-7.3-4.6-7.9c-0.3-0.3-0.7-0.3-1-0.1
		c0,0,0,0-0.1,0.1c0,0-0.4,0.4-0.9,1c-0.9,1.1-1.3,2.4-1.2,3.8l-0.7-0.5c-0.2-0.1-0.4-0.2-0.6-0.1c-0.2,0-0.4,0.2-0.5,0.3
		c-0.6,1-0.8,2.2-0.8,3.3c0,0.7,0.1,1.3,0.4,1.9c-1.6-1.4-2.6-3.4-2.6-5.6c0-3.2,5-9,7.4-11.6c0.8,0.7,1.6,1.4,2.3,2.1
		c0.8,0.9,1.2,2.1,0.9,3.3l-0.3,1.6c-0.1,0.3,0.1,0.6,0.3,0.8c0.2,0.2,0.6,0.2,0.8,0l1.6-1.1c1,1.5,1.5,3.1,1.7,4.9
		C40.1,40.6,39.2,42.7,37.5,44.1z"/>
</g>
</svg>
