<svg xmlns="http://www.w3.org/2000/svg" width="65" height="65" viewBox="0 0 65 65">
  <g>
    <g opacity=".2">
      <path fill="rgb(55,47,255)" fill-rule="evenodd" d="M10.83300004 0h43.334c5.9829007 0 10.833 4.8500993 10.833 10.833v43.334c-9e-8 5.98290086-4.85009946 10.83300009-10.83300016 10.833H10.83300004C4.85009934 65 4e-8 60.1499007 4e-8 54.167V10.833C0 7.95990993 1.14133061 5.20449397 3.17291217 3.17291235 5.20449373 1.14133074 7.95990965 5e-8 10.83299988 0h1.6e-7z"/>
    </g>
    <path fill="rgb(51,51,51)" fill-rule="evenodd" d="M56.40997317 12h-6.54498291c-.60247803 0-1.09136963.48754883-1.09301758 1.08996582V50.1829834c.00024414.28955078.11560058.56713867.32061767.77148437.2050171.20446778.48284912.3190918.7723999.31848145h6.54498292c.2892456.00061035.5668335-.11413574.7713623-.31860352.2045288-.20458984.31915283-.48205566.31866455-.7713623V13.08996582c0-.2890625-.11486816-.56628418-.3192749-.77075195C56.97631838 12.11486817 56.69903567 12 56.40997317 12zM50.9550171 49.09301758h4.36297608V14.1800537H50.9550171v34.91296387zm-20.72698974-32.7310791h-6.54498292c-.60247802 0-1.09136962.48754882-1.09301757 1.08996582v32.7310791c.00024414.2894287.11560058.5670166.32061767.77148437.2050171.20446778.48284912.31896973.7723999.31848145h6.54498292c.2892456.00048828.56677246-.11413574.7713623-.31872559.2045288-.20446777.31915283-.48205566.31866455-.77124023V17.4519043c-.00054932-.60168457-.48828125-1.08935547-1.09002685-1.08996582zm-5.4560547 32.7310791h4.36297608l-.00097656-30.54797363h-4.36199951v30.54797363zM43.3179932 29.4519043h-6.54602051c-.60198975 0-1.08996582.4880371-1.08996582 1.09008789v19.6409912c-.00054932.28918458.11413574.56677247.31866455.77124024.2045288.20458985.48205566.31921387.77130127.31872559h6.5460205c.28967286.00109863.5678711-.11328125.77294922-.3178711.20513916-.20458984.3203125-.48242187.32006836-.77209472V30.54492188c.00048828-.29003907-.11450195-.56835938-.31958007-.7734375-.20507813-.20507813-.48339844-.32006836-.7734375-.31958008zm-5.45599366 19.6409912h4.36602784V31.63793946h-4.36602784v17.45495606zM10.58996584 36h6.54504395c.60247802 0 1.0913086.48754883 1.09295654 1.08996582V50.1829834c-.00024414.28955078-.11560059.56713867-.32061768.77148437-.20495605.20446778-.48284912.3190918-.77233886.31848145h-6.54504395c-.2892456.00061035-.56677246-.11413574-.77130127-.31860352-.2045288-.20458984-.31921387-.48205566-.31866455-.7713623V37.08996582C9.50000002 36.48803711 9.9879761 36 10.58996584 36zm1.09002686 13.09301758h4.36499023V38.1829834H11.6799927v10.91003418z"/>
  </g>
</svg>
