<svg xmlns="http://www.w3.org/2000/svg" width="65" height="65" viewBox="0 0 65 65">
  <g>
    <g opacity=".2">
      <path fill="rgb(55,47,255)" fill-rule="evenodd" d="M10.83300004 0h43.334c5.9829007 0 10.833 4.8500993 10.833 10.833v43.334c-9e-8 5.98290086-4.85009946 10.83300009-10.83300016 10.833H10.83300004C4.85009934 65 4e-8 60.1499007 4e-8 54.167V10.833C0 7.95990993 1.14133061 5.20449397 3.17291217 3.17291235 5.20449373 1.14133074 7.95990965 5e-8 10.83299988 0h1.6e-7z"/>
    </g>
    <path fill="rgb(51,51,51)" fill-rule="evenodd" d="M11.63499453 8h41.7350006c2.53466798-.02502441 4.60974122 2.00927734 4.63500977 4.54394531V46.6369629c-.02526855 2.53466797-2.1003418 4.56896973-4.63500976 4.54394531H37.1399994v4.5480957h3.47999573c.40585327 0 .78088379.21643067.98381042.56799317.20292664.35144043.20292664.78442383 0 1.13598633-.20292663.35144043-.57795715.56799316-.98381042.56799316H24.3899994c-.40585327 0-.78088379-.21655273-.98381042-.56799316-.20292664-.3515625-.20292664-.7845459 0-1.13598633.20292663-.3515625.57795715-.56799316.98381042-.56799316h3.47999573v-4.5480957H11.63499453c-2.53463745.0250244-4.6097107-2.00927735-4.6349945-4.54394532V12.54394531C7.02528382 10.00927734 9.10035707 7.9749756 11.63499452 8zM9.31700136 42.08898926h46.3650055l.00500488-29.54492188c-.01538086-1.2659912-1.05099487-2.28149414-2.3170166-2.27209472H11.6340027c-1.26602173-.00939942-2.30162049 1.00610351-2.31700135 2.27209472v29.54492188zm46.3650055 4.54797363c-.01538086 1.26403809-1.04794312 2.27868652-2.31201172 2.27197266H11.63499453c-1.26602173.00952148-2.30162049-1.00598145-2.31700134-2.27197266v-2.27600098h46.36499023l-.00097656 2.27600098zm-25.49900818 9.09106445h4.63400268l.00099183-4.54699707h-4.63499451v4.54699707z"/>
  </g>
</svg>
