<svg xmlns="http://www.w3.org/2000/svg" width="65" height="65" viewBox="0 0 65 65">
  <g>
    <g opacity=".2">
      <path fill="rgb(55,47,255)" fill-rule="evenodd" d="M10.83300004 0h43.334c5.9829007 0 10.833 4.8500993 10.833 10.833v43.334c-9e-8 5.98290086-4.85009946 10.83300009-10.83300016 10.833H10.83300004C4.85009934 65 4e-8 60.1499007 4e-8 54.167V10.833C0 7.95990993 1.14133061 5.20449397 3.17291217 3.17291235 5.20449373 1.14133074 7.95990965 5e-8 10.83299988 0h1.6e-7z"/>
    </g>
    <path fill="rgb(51,51,51)" fill-rule="evenodd" d="M53.0339966 10.79699707c.36633301.18615723.59533692.56408691.59100342.97497559h.00402832v26.18200683h-.01000976c.0057373.16760254-.02856446.33422852-.09997559.48596192-.26904297.53833007-.92321777.75720214-1.46203613.48901367-3.29327393-1.40478516-6.84289551-2.10864258-10.42297364-2.0670166-2.52636718-.09033203-5.04638671.30761718-7.42199707 1.17199707-1.81085205.68615722-3.73364257 1.02905273-5.67004394 1.01098632-2.34832764.05053711-4.6854248-.33813476-6.89099121-1.14599609-1.63757324-.60949707-3.3626709-.95117187-5.10894776-1.01196289v18.51794434c0 .60229492-.48828125 1.09057617-1.09051513 1.09057617-.60229492 0-1.09051514-.48828125-1.09051514-1.09057617V9.5859375c0-.60144043.48754883-1.08898926 1.08898926-1.08898926 2.34869385-.05102539 4.68621826.33764649 6.8920288 1.1459961 1.98260499.73388671 4.08648682 1.085083 6.19995118 1.03503418 1.69873047.01879882 3.38555908-.28491211 4.9710083-.89501954 2.60095215-.9399414 5.3569336-1.37634277 8.12103271-1.28601074 3.9208374-.0583496 7.80847168.72607422 11.39996338 2.30004883zM41.63696291 34.68200684c3.34277344-.0144043 6.66339112.54333496 9.81799317 1.64904785V12.4859619c-3.13079834-1.2109375-6.46118164-1.82312011-9.81799317-1.80493164-2.52606201-.08898925-5.04577637.30822754-7.42199707 1.16992188-1.81048584.68737793-3.73345947 1.03063965-5.6699829 1.01208496-2.34838868.05029297-4.68554688-.33874512-6.89099122-1.14709473-1.63793945-.60803222-3.36291504-.94946289-5.10900879-1.01098633v24c1.98114014.06152344 3.93951416.44128418 5.7999878 1.125 1.98309326.73217774 4.08666992 1.0826416 6.2000122 1.03308106 1.6987915.01977539 3.38580322-.28393555 4.9710083-.89501953 2.60089112-.9399414 5.3569336-1.37634278 8.12097168-1.28601074z"/>
  </g>
</svg>
