<svg xmlns="http://www.w3.org/2000/svg" width="34" height="34" viewBox="0 0 34 34">
  <g>
    <path fill="rgb(255,255,255)" fill-rule="evenodd" d="M4.25 0h25.5c2.34424719.00713794 4.24286206 1.90575281 4.25 4.25v25.5c-.00713794 2.34424719-1.90575281 4.24286206-4.25 4.25H4.25C1.90575281 33.99286206.00713794 32.09424719 0 29.75V4.25C.00659181 1.90552566 1.90552566.00659181 4.25 0z"/>
    <path fill="rgb(69,81,88)" fill-rule="evenodd" d="M29.158 28.179H23.9V17.103c.04026016-.48671956-.07192558-.97390627-.321-1.394-.33418263-.37037225-.82785523-.55470653-1.323-.494-1.2715811-.09454222-2.4401002.70119523-2.818 1.919v11.047h-5.527V10.143h5.527v1.427c.46201886-.29950422.95077068-.55559678 1.46-.765 1.03761257-.42884286 2.14926001-.65001722 3.272-.651 1.54988205.0005163 3.00549272.74431327 3.914 2 .98180783 1.5107685 1.45354878 3.29644465 1.346 5.095v10.933l-.272-.003z"/>
    <path fill="rgb(69,81,88)" fill-rule="evenodd" d="M8.087 8.447c-1.42676424-.02787814-2.5688165-1.19246342-2.5688165-2.6195S6.66023575 3.23587814 8.087 3.208c.69280426.00605064 1.35559866.2835913 1.846.773.48899813.48715252.76421674 1.14875647.765 1.839.00172965.696324-.27348757 1.36476007-.765 1.858-.48782516.49275053-1.15261987.7696883-1.846.769z"/>
    <path fill="rgb(69,81,88)" fill-rule="evenodd" d="M10.592 28.179H5.318V10.143h5.545v18.036h-.271z"/>
  </g>
</svg>
