<?xml version="1.0" encoding="utf-8"?>
<!-- Generator: Adobe Illustrator 26.0.1, SVG Export Plug-In . SVG Version: 6.00 Build 0)  -->
<svg version="1.1" id="Capa_1" xmlns="http://www.w3.org/2000/svg" xmlns:xlink="http://www.w3.org/1999/xlink" x="0px" y="0px"
	 viewBox="0 0 198.9 38.4" style="enable-background:new 0 0 198.9 38.4;" xml:space="preserve">
<style type="text/css">
	.st0{fill-rule:evenodd;clip-rule:evenodd;fill:url(#SVGID_1_);}
	.st1{fill-rule:evenodd;clip-rule:evenodd;fill:url(#SVGID_00000150102457892545281470000000032658473281389487_);}
	.st2{fill-rule:evenodd;clip-rule:evenodd;fill:#FFFFFF;}
	.st3{fill-rule:evenodd;clip-rule:evenodd;fill:#FA4B6A;}
</style>
<g>
	<g>
		<linearGradient id="SVGID_1_" gradientUnits="userSpaceOnUse" x1="24.8212" y1="3.3457" x2="24.9921" y2="3.1745">
			<stop  offset="0" style="stop-color:#0903B0"/>
			<stop  offset="8.000000e-02" style="stop-color:#1D16D2"/>
			<stop  offset="0.17" style="stop-color:#2B24EB"/>
			<stop  offset="0.24" style="stop-color:#342CFA"/>
			<stop  offset="0.3" style="stop-color:#372FFF"/>
			<stop  offset="0.49" style="stop-color:#352DFB"/>
			<stop  offset="0.69" style="stop-color:#2E26EF"/>
			<stop  offset="0.88" style="stop-color:#221BDB"/>
			<stop  offset="1" style="stop-color:#1811CA"/>
		</linearGradient>
		<path class="st0" d="M25.1,3.3c-0.1,0-0.2,0-0.3,0C24.9,3.3,25,3.3,25.1,3.3z"/>
		
			<linearGradient id="SVGID_00000174564904623465119170000013245910675010080129_" gradientUnits="userSpaceOnUse" x1="13.6828" y1="31.249" x2="36.1331" y2="8.7658">
			<stop  offset="0" style="stop-color:#0903B0"/>
			<stop  offset="8.000000e-02" style="stop-color:#1D16D2"/>
			<stop  offset="0.17" style="stop-color:#2B24EB"/>
			<stop  offset="0.24" style="stop-color:#342CFA"/>
			<stop  offset="0.3" style="stop-color:#372FFF"/>
			<stop  offset="0.49" style="stop-color:#352DFB"/>
			<stop  offset="0.69" style="stop-color:#2E26EF"/>
			<stop  offset="0.88" style="stop-color:#221BDB"/>
			<stop  offset="1" style="stop-color:#1811CA"/>
		</linearGradient>
		<path style="fill-rule:evenodd;clip-rule:evenodd;fill:url(#SVGID_00000174564904623465119170000013245910675010080129_);" d="
			M38.1,13.9c-1.1-3.4-3.2-8-8.2-9.8c-0.1,2-1.7,3.5-3.7,3.6c-2,0-3.7-1.7-3.7-3.7V3.5c0.5-0.1,1-0.2,1.5-0.2
			C17.1,3.9,10.5,9.1,7,13.8c-7,9.7,9,18.7,11.5,18.5c2.3-0.2,6.1-4.1,5.7-13.5c-1.1,0-1.9,0-2.6-0.1c-1.2-0.1-2.1-1.1-2.1-2.2v-4
			l11.6,0.2c0,0,2,11-1.4,17.1c-1.5,2.8-4.3,4.7-1,6.5C37.9,38.4,41.1,22.7,38.1,13.9z"/>
	</g>
	<path class="st2" d="M54.5,29.9c0.2,0,0.4-0.1,0.5-0.2c0.2-0.1,0.3-0.3,0.3-0.4l1.7-4.7h9.1l1.7,4.7c0.1,0.4,0.5,0.6,0.8,0.6h1
		c0.3,0,0.6-0.1,0.8-0.3c0.2-0.2,0.3-0.5,0.3-0.8c0-0.2,0-0.3-0.1-0.5L63.6,9c-0.1-0.2-0.2-0.3-0.3-0.4c-0.2-0.1-0.3-0.2-0.5-0.2h-2
		c-0.2,0-0.4,0.1-0.5,0.2C60,8.7,59.9,8.8,59.8,9l-7.3,19.3c-0.1,0.2-0.1,0.3-0.1,0.5c0,0.3,0.1,0.6,0.3,0.8
		c0.2,0.2,0.5,0.3,0.8,0.3H54.5z M58.1,21.8l3.6-9.5l3.5,9.5H58.1z"/>
	<path class="st2" d="M86.1,29.6c-0.2,0.2-0.5,0.3-0.7,0.3h-9.6c-0.3,0-0.5-0.1-0.7-0.3s-0.3-0.5-0.3-0.7L74.6,9.4
		c0-0.3,0.1-0.5,0.3-0.7c0.2-0.2,0.5-0.3,0.7-0.3h0.9c0.3,0,0.5,0.1,0.7,0.3c0.2,0.2,0.3,0.5,0.3,0.7l0.1,17.8h7.7
		c0.3,0,0.5,0.1,0.7,0.3c0.2,0.2,0.3,0.5,0.3,0.7v0.7C86.4,29.2,86.3,29.4,86.1,29.6z"/>
	<path class="st2" d="M89,11.1c-0.3,0-0.5-0.1-0.7-0.3c-0.2-0.2-0.3-0.4-0.3-0.7l0-0.7c0-0.3,0.1-0.6,0.3-0.8
		c0.2-0.2,0.5-0.3,0.8-0.3h13.8c0.3,0,0.5,0.1,0.7,0.3c0.2,0.2,0.3,0.4,0.3,0.7l0,0.7c0,0.3-0.1,0.6-0.3,0.8
		c-0.2,0.2-0.5,0.3-0.8,0.3h-5.6l0.1,17.7c0,0.3-0.1,0.5-0.3,0.7c-0.2,0.2-0.4,0.3-0.7,0.3h-0.9c-0.3,0-0.5-0.1-0.7-0.3
		c-0.2-0.2-0.3-0.5-0.3-0.7l-0.1-17.7C94.3,11.1,89,11.1,89,11.1z"/>
	<path class="st2" d="M117.1,8.1c-1.9,0-3.8,0.5-5.5,1.5c-1.6,1-2.9,2.3-3.8,4c-0.9,1.7-1.4,3.6-1.4,5.6c0,1.5,0.3,2.9,0.8,4.3
		c0.5,1.3,1.2,2.5,2.2,3.5c1,1,2.2,1.8,3.5,2.4c2.7,1.1,5.7,1.1,8.4,0c1.3-0.5,2.5-1.3,3.5-2.4c1-1,1.7-2.2,2.2-3.5
		c0.5-1.4,0.8-2.8,0.8-4.3c0-1-0.1-2-0.3-3c-0.2-1-0.6-2-1.2-2.9c-0.6-1-1.3-1.9-2.2-2.6c-1-0.8-2.1-1.5-3.3-1.9
		C119.7,8.4,118.4,8.1,117.1,8.1z M110.3,23.6c-0.7-1.1-1-2.5-1-3.8c0-0.9,0.1-1.8,0.2-2.7c0.1-0.7,0.3-1.4,0.7-2.1
		c1.4-2.5,4-4.1,6.9-4.1c1.3,0,2.5,0.3,3.6,0.8c1,0.5,1.8,1.3,2.5,2.2c0.6,0.8,1,1.8,1.3,2.7c0.3,1,0.4,2,0.4,3.1
		c0,0.6,0,1.2-0.2,1.8c-0.2,0.6-0.4,1.1-0.7,1.7c-0.7,1.2-1.7,2.3-2.9,3c-1.2,0.7-2.6,1.1-4,1.1c-1.4,0-2.8-0.4-4-1.1
		C111.9,25.6,111,24.7,110.3,23.6z"/>
	<path class="st2" d="M131,34.8c0.3-0.1,0.6-0.3,0.9-0.6c0.2-0.2,0.3-0.5,0.4-0.8c0.1-0.3,0.2-0.7,0.2-1l0-0.7v-0.3l-0.2-22
		c0-0.3,0.1-0.5,0.3-0.7c0.2-0.2,0.5-0.3,0.7-0.3h0.8c0.3,0,0.5,0.1,0.7,0.3s0.3,0.5,0.3,0.7l0.2,22c0,0,0,3.1-1.4,4.7
		c-0.9,1.1-2.3,1.6-4,1.6c0,0-0.1-0.1-0.1-0.3c0-0.2-0.1-0.4-0.1-0.7l0-0.8c0-0.6,0-1,0-1C130.2,35,130.6,34.9,131,34.8L131,34.8z"
		/>
	<path class="st2" d="M150.6,8.1c-1.9,0-3.8,0.5-5.5,1.5c-1.6,1-2.9,2.3-3.8,4c-0.9,1.7-1.4,3.6-1.4,5.6c0,1.5,0.3,2.9,0.8,4.3
		c0.5,1.3,1.2,2.5,2.2,3.5c1,1,2.2,1.8,3.5,2.4c2.7,1.1,5.8,1.1,8.5,0c1.3-0.5,2.5-1.3,3.5-2.4c1-1,1.7-2.2,2.2-3.5
		c0.5-1.4,0.8-2.8,0.8-4.3c0-1-0.1-2-0.3-3c-0.5-2.2-1.7-4.1-3.4-5.5c-1-0.8-2.1-1.5-3.3-1.9C153.2,8.4,151.9,8.1,150.6,8.1z
		 M143.8,23.6c-0.7-1.1-1-2.5-1-3.8c0-0.9,0.1-1.8,0.2-2.7c0.1-0.7,0.3-1.4,0.7-2.1c1.4-2.5,4-4.1,6.9-4.1c1.3,0,2.5,0.3,3.6,0.8
		c1,0.5,1.8,1.3,2.5,2.2c0.6,0.8,1,1.8,1.3,2.7c0.3,1,0.4,2,0.4,3.1c0,0.6,0,1.2-0.2,1.8c-0.2,0.6-0.4,1.1-0.7,1.7
		c-0.7,1.2-1.7,2.3-2.9,3c-1.2,0.7-2.6,1.1-4,1.1c-1.4,0-2.8-0.4-4-1.1C145.4,25.6,144.5,24.7,143.8,23.6z"/>
	<path class="st2" d="M166.2,8.7c0.2-0.2,0.5-0.3,0.7-0.3h6.8c1.1,0,2.2,0.2,3.2,0.7c0.9,0.4,1.6,1.1,2.2,1.9
		c0.5,0.9,0.8,1.9,0.8,2.9c0,1-0.2,1.9-0.6,2.8c-0.4,0.8-1.1,1.4-1.9,1.7c0.7,0.2,1.4,0.5,1.9,1c0.6,0.5,1,1.2,1.3,1.9
		c0.3,0.7,0.5,1.5,0.5,2.3c0,1.1-0.2,2.2-0.7,3.1c-0.5,0.9-1.3,1.7-2.2,2.2c-1,0.6-2.2,0.9-3.4,0.9h-7.9c-0.3,0-0.5-0.1-0.7-0.3
		c-0.2-0.2-0.3-0.4-0.3-0.7L166,9.4C166,9.1,166.1,8.9,166.2,8.7z M175.6,16.9c0.4-0.3,0.8-0.7,1-1.2c0.2-0.5,0.3-1.1,0.3-1.7
		c0-0.6-0.1-1.1-0.4-1.6c-0.3-0.5-0.8-0.8-1.3-1c-0.6-0.2-1.2-0.4-1.8-0.4h-4.6v6.3h5.2C174.6,17.3,175.1,17.2,175.6,16.9z
		 M177.6,25.4c-0.3,0.5-0.7,1-1.2,1.3c-0.5,0.3-1.2,0.5-1.8,0.5h-5.7v-7.3h5.6c0.6,0,1.3,0.2,1.8,0.5c0.5,0.4,1,0.8,1.3,1.4
		c0.3,0.6,0.5,1.2,0.5,1.8C178,24.2,177.9,24.8,177.6,25.4z"/>
	<path class="st2" d="M186,23.3c0.2,0,0.4,0.1,0.6,0.2c0.2,0.2,0.3,0.4,0.4,0.6c0.1,0.4,0.3,0.7,0.5,1.1c0.5,0.7,1.1,1.3,1.8,1.8
		c0.7,0.5,1.5,0.7,2.4,0.7c0.7,0,1.5-0.1,2.1-0.4c0.6-0.3,1.1-0.7,1.5-1.2c0.4-0.5,0.6-1.1,0.7-1.7c0-0.1,0-0.2,0-0.3
		c0-0.4-0.1-0.9-0.3-1.3c-0.2-0.4-0.4-0.7-0.8-1c-0.8-0.6-1.7-1-2.6-1.2l-2.8-0.7c0,0-5.2-1.3-5.2-5.6c0-1.1,0.3-2.2,1-3.1
		c0.6-0.9,1.5-1.7,2.6-2.2c1.1-0.5,2.2-0.8,3.4-0.7c1.2,0,2.4,0.2,3.5,0.7c1,0.5,1.8,1.2,2.4,2.1c0.4,0.7,0.7,1.6,0.8,2.4
		c0,0.2,0,0.5-0.2,0.7c-0.2,0.2-0.4,0.3-0.6,0.4l-0.8,0.2c-0.1,0-0.1,0-0.2,0c-0.2,0-0.4-0.1-0.6-0.2c-0.2-0.2-0.3-0.4-0.4-0.6
		c-0.1-0.3-0.2-0.7-0.4-1c-0.3-0.6-0.8-1.1-1.4-1.4c-0.6-0.4-1.4-0.6-2.1-0.5c-0.7,0-1.4,0.1-2,0.4c-0.6,0.3-1.1,0.7-1.5,1.2
		c-0.4,0.5-0.5,1.1-0.5,1.7c0,0,0,2.2,3.1,3l2.8,0.7c0,0,2.9,0.8,4.3,2.3c0.9,1,1.5,2.3,1.4,3.6c0,0.3,0,0.6-0.1,0.9
		c-0.1,1-0.5,2-1.1,2.9c-0.6,0.9-1.5,1.5-2.5,2c-1.1,0.5-2.3,0.8-3.5,0.7c-1,0-2-0.2-3-0.5c-0.9-0.3-1.7-0.8-2.4-1.4
		c-0.6-0.6-1.2-1.3-1.5-2.1c-0.2-0.5-0.4-1.1-0.5-1.6v-0.1c0-0.2,0.1-0.4,0.2-0.5c0.1-0.2,0.3-0.3,0.5-0.3l0.8-0.2
		C185.9,23.3,186,23.3,186,23.3L186,23.3z"/>
	<g>
		<path class="st3" d="M26.3,0.1c-2-0.1-3.7,1.4-3.9,3.5c0,0,0,0,0,0v0c1.3-0.3,2.6-0.3,3.9-0.3c1.2,0.1,2.4,0.3,3.5,0.7V3.9
			C29.9,1.9,28.4,0.2,26.3,0.1z"/>
		<path class="st3" d="M29.9,4L29.9,4C29.9,4,29.9,4,29.9,4C29.9,4,29.9,4,29.9,4z"/>
	</g>
</g>
</svg>
