<svg xmlns="http://www.w3.org/2000/svg" width="198.95" height="38.385" viewBox="0 0 198.95 38.385">
  <defs>
    <linearGradient id="linearGradient-2" x1="12.67" x2="37.144" y1="7.755" y2="32.265" gradientUnits="userSpaceOnUse">
      <stop offset="0" stop-color="rgb(9,3,176)"/>
      <stop offset=".08" stop-color="rgb(29,22,210)"/>
      <stop offset=".17" stop-color="rgb(43,36,235)"/>
      <stop offset=".24" stop-color="rgb(52,44,250)"/>
      <stop offset=".3" stop-color="rgb(55,47,255)"/>
      <stop offset=".49" stop-color="rgb(53,45,251)"/>
      <stop offset=".69" stop-color="rgb(46,38,239)"/>
      <stop offset=".88" stop-color="rgb(34,27,219)"/>
      <stop offset="1" stop-color="rgb(24,17,202)"/>
    </linearGradient>
  </defs>
  <g>
    <path fill="url(#linearGradient-2)" fill-rule="evenodd" d="M18.54581514 32.30324803C16.0013466 32.4955595 0 23.5098054 7.0236934 13.83653774c3.84070725-5.28856582 11.718958-11.13964273 19.35236366-10.54828491 7.63340566.59135781 10.37951135 6.46647366 11.7477633 10.57713164 2.93814105 8.82228934-.19683624 24.51971425-9.3953301 22.34659447-3.32701266-1.76445786-.58090698-3.62507148.9601768-6.46647366 3.32701266-6.08185069 1.36825196-17.05802866 1.36825196-17.05802866l-11.55092706-.1875037v3.96161658c.00008438 1.1812959.91603262 2.15957192 2.09318546 2.23562101.65772111.04807787 1.5074776.0769246 2.60688004.0769246.40807515 9.40883936-3.36061884 13.33199364-5.6602423 13.52911292z"/>
    <ellipse cx="26.184" cy="3.875" fill="rgb(250,75,106)" rx="3.721" ry="3.726"/>
    <path fill="rgb(250,75,106)" fill-rule="evenodd" d="M26.37605705 3.28825283c1.20079018.08503 2.3845572.33247445 3.51904802.73559143v-.1490414c.03709038-2.01780235-1.53867154-3.69744031-3.5519715-3.78612159C24.3298336 0 22.612898 1.53460215 22.4729383 3.54787333c1.28427255-.25582642 2.5963416-.34310023 3.90311874-.2596205z"/>
    <path fill="rgb(250,75,106)" fill-rule="evenodd" d="M26.18402169 7.5864145c1.9954112-.00108018 3.63374214-1.58021454 3.71108338-3.5769936-1.13449081-.40311698-2.31825784-.65056143-3.51904802-.73559143-1.30518332-.08306088-2.61561133.00421111-3.89831786.2596205v.32692952c-.00001535 2.05221278 1.65703165 3.71809096 3.7062825 3.72603501z"/>
    <path fill="rgb(248,255,255)" fill-rule="evenodd" d="M26.18402169 7.5864145c1.9954112-.00108018 3.63374214-1.58021454 3.71108338-3.5769936-1.13449081-.40311698-2.31825784-.65056143-3.51904802-.73559143-1.30518332-.08306088-2.61561133.00421111-3.89831786.2596205v.32692952c-.00001535 2.05221278 1.65703165 3.71809096 3.7062825 3.72603501z"/>
    <path fill="rgb(0,0,0)" fill-rule="evenodd" d="M54.51403809 29.87050629c.18670654.00317382.36914062-.0560379.51849365-.16827011.15084839-.10723496.2675476-.25582123.33605957-.4278946l1.70431518-4.68759155h9.12168885l1.71870422 4.70682144c.1210785.36393738.4669342.60462952.84976196.591362h.96017456c.29719544.00958634.58528138-.10338592.7969513-.31250763.20581054-.20213318.31878662-.4806366.3120575-.76924896-.0001526-.16455841-.03109742-.32762909-.09121705-.48077393L63.56370544 8.99028778c-.06561279-.17497635-.1807251-.32701492-.3312683-.43750763-.15223694-.10541916-.3334198-.16086197-.51849366-.15865707h-2.03076172c-.18507385-.0022049-.36627197.05323791-.5185089.15865707-.15217591.10881424-.2677002.26140213-.33125306.43750763l-7.3213501 19.31768799c-.05752563.15388489-.0883789.31648636-.09121704.48078155-.0059967.29135895.11283875.57135773.3264618.76924515.22964477.21140671.53321838.3236847.84495544.31250382h.92176819zm3.57185363-8.06746674l3.55744934-9.54826355 3.5430603 9.54826355h-7.10050964z"/>
    <path fill="rgb(0,0,0)" fill-rule="evenodd" d="M86.08465216 29.5868483c-.18999738.19455179-.45341513.2993716-.7249335.28846724h-9.60176812c-.2697351.01245545-.53224044-.08940436-.72317461-.28061307-.19093418-.1912087-.29264773-.4540915-.28021016-.72421444L74.60093748 9.4133736c-.00977961-.27502692.09858178-.5410691.29765481-.73078364.19112026-.18986577.45098128-.29395963.72013261-.28846722h.86896002c.27146664-.00773222.53456777.0945394.72973438.28365944.19301001.18913031.2975715.45090987.28805304.72116806l.13442475 17.7888123h7.73902512c.27020172-.0086442.53215911.09385719.72493349.28365944.18949134.19078217.29048587.4523505.27845127.72116807v.70193692c-.00369934.26115356-.11075597.51015875-.2976548.69232134z"/>
    <path fill="rgb(0,0,0)" fill-rule="evenodd" d="M89.00839056 11.13456139c-.25578496.00919316-.50464875-.08426495-.6913273-.2596205-.18959808-.17628964-.29742946-.42361339-.29765482-.68270577l-.04320796-.70193692c-.02903024-.28714184.06723343-.57284255.26404863-.7836693.2001551-.20862138.4794102-.3222319.76814145-.31250616h13.75933373c.25578496-.00919316.50464875.08426495.6913273.2596205.18959808.17628963.29742946.42361338.29765481.68270577l.04320796.70193692c.03439477.28772266-.0626142.57563533-.26404862.7836693-.2001551.20862138-.4794102.32223189-.76814145.31250616h-5.56422463l.13922563 17.72150328c.00685617.27355452-.09906437.53786719-.29285392.73078364-.18657066.190788-.44396406.29528672-.71053084.28846723h-.91216798c-.27105338.01068245-.53468711-.09005927-.72973438-.27885166-.1960356-.18943156-.30249354-.45333748-.29285392-.72597585l-.13442476-17.73592664h-5.26176893z"/>
    <path fill="rgb(0,0,0)" fill-rule="evenodd" d="M117.08876038 8.14892578c-1.93016053-.01996612-3.82859803.49233246-5.4874115 1.48079682-1.61924744.95193862-2.94490052 2.33273315-3.83110047 3.99046325-.9197235 1.71668625-1.39042663 3.63861847-1.36825561 5.58664704-.00427246 1.4615097.25765991 2.9115448.77293396 4.27893066.48680115 1.30693817 1.23873901 2.49868011 2.20840454 3.50006866.98937988 1.02056885 2.17948913 1.82439423 3.49505615 2.36062623 2.70256043 1.13467407 5.74697876 1.13467407 8.44955444 0 1.31982422-.53879548 2.51571656-1.34211731 3.51425171-2.36062623.98158265-.9881897 1.73820496-2.17723846 2.21800232-3.48564529.52064514-1.37105179.78430176-2.82651901.77774048-4.29335403.01121521-1.00267792-.08535766-2.00365448-.28805542-2.98563385-.23016357-1.01701737-.62072754-1.99079133-1.15701294-2.88467408-.58343506-.99609375-1.34126282-1.87879562-2.23721313-2.6058197-.97381592-.82597732-2.0832367-1.47664642-3.27900696-1.92311478-1.21362305-.44281387-2.49624634-.66584777-3.78788757-.6586647zm-6.822052 15.423378c-.65396119-1.14834596-.98573304-2.45239259-.96018983-3.7741127.000412-.89878465.07426453-1.79602815.22084046-2.68274308.09565735-.72652817.32865906-1.42815018.6865387-2.06734848 1.35862731-2.53836441 4.00863647-4.1151123 6.88446044-4.09623718 1.26243592-.03204346 2.51251221.25570297 3.63427735.83655548.97946167.53617477 1.82225036 1.29133224 2.46284485 2.20677566.57406616.836483 1.00559997 1.76252747 1.27703857 2.74044037.28762817.99555206.43626404 2.0261879.4416809 3.06255722.01312257.6189003-.04814147 1.23713303-.18243407 1.84138489-.1681366.58301163-.40335083 1.14448166-.70092774 1.67310715-.6697998 1.24004745-1.66603088 2.2726326-2.88053894 2.98563766-1.22554016.71865463-2.62219238 1.09240341-4.04234314 1.08175278-1.41793823.01393127-2.8120575-.36547089-4.02793884-1.09617615-1.15327454-.64889145-2.12171936-1.58231735-2.81330872-2.71159363z"/>
    <path fill="rgb(0,0,0)" fill-rule="evenodd" d="M130.96811728 34.77925839c.32964564-.11676645.62729314-.30944507.86896002-.5625111.19328241-.2382755.33693536-.51291636.4224778-.80770823.1133288-.3237732.17961813-.66217295.19683624-1.0048275l.0336062-.745207v-.27404387l-.16323007-21.95716372c-.0097796-.27502693.09858178-.5410691.29765482-.73078364.19112025-.18986577.45098128-.29395964.7201326-.28846723h.84015472c.27297074-.01811276.5406954.08123988.7359629.2731159.19526751.191876.29953457.45805414.2866254.7317116l.1536283 22.00043381s0 3.07217596-1.35384931 4.6587457c-.93137151 1.05771317-2.27561905 1.58176197-4.02794173 1.58176197-.0288053 0-.0624115-.08654017-.09601769-.2644283-.0430122-.21867279-.06710596-.44065403-.07201326-.66347462l-.04320795-.75963036c-.0288053-.63943568-.04320796-.96155742-.0288053-.96155742.42009933.00138499.83681508-.07523142 1.22902631-.225966z"/>
    <path fill="rgb(0,0,0)" fill-rule="evenodd" d="M150.6085205 8.14892578c-1.93014526-.01996612-3.82858276.49233246-5.48739623 1.48079682-1.61990357.95324707-2.94561768 2.33577346-3.83111573 3.99526977-.91970825 1.71668625-1.39041137 3.63862228-1.36824035 5.58665085-.00534058 1.46203613.25830078 2.91255188.77774048 4.27893066.48686218 1.30578232 1.23698425 2.49720383 2.20359802 3.50006867.9911499 1.01843261 2.18078613 1.82194137 3.49505615 2.3606224 2.70428467 1.13439942 5.75006104 1.13439942 8.4543457 0 1.31903077-.53768158 2.51354981-1.34118652 3.50946045-2.3606224.9814148-.98923874 1.7394104-2.17788315 2.22280884-3.4856453.5169983-1.37192154.77896118-2.82700348.77294922-4.29335403.01119995-1.00268173-.08538818-2.00365448-.28805542-2.98563767-.4941101-2.15581894-1.68569946-4.08772277-3.38943481-5.49530029-.97555542-.82605743-2.08654786-1.47670746-3.28381348-1.92311478-1.21350098-.44321441-2.49621582-.66625595-3.78790283-.6586647zm-6.822052 15.4233818c-.6517334-1.1492424-.9833374-2.45267104-.96017455-3.7741127.00439453-.89881134.07983398-1.7958641.22564697-2.68274688.09725952-.72615814.33013916-1.42749024.68652344-2.06734848 1.36105346-2.53605652 4.00952148-4.11188889 6.88449096-4.09623337 1.2624817-.03267288 2.51272583.2551117 3.63424683.83655548.97946167.53617096 1.82226562 1.29133225 2.4628601 2.20677185.57406617.836483 1.00558472 1.76253128 1.27703858 2.74044037.28762817.99555588.43624878 2.0261879.4416809 3.06256104.01312257.61889648-.04812621 1.2371292-.18243407 1.84138107-.16601563.5837593-.40133667 1.14547348-.70092774 1.67311096-.66879272 1.24077988-1.66525268 2.27360535-2.88052368 2.98563385-1.22750854.71816254-2.62554932 1.09184265-4.04714966 1.08175278-1.41793823.01393127-2.81207275-.36547089-4.0279541-1.09617615-1.1522522-.65026093-2.12039185-1.58338928-2.81332397-2.71158981z"/>
    <path fill="rgb(0,0,0)" fill-rule="evenodd" d="M166.24499512 8.67778397c.19085693-.19279099.4541626-.29582215.72494507-.2836609h6.7788391c1.10070801-.01899718 2.1916504.20936204 3.19259644.66828156.88687134.42410279 1.63586426 1.0908165 2.1604004 1.92311478.52902221.8883934.79696655 1.9082756.77294921 2.94236755.02850342.97488022-.18600464 1.94151306-.62411499 2.8125534-.41375732.7756157-1.09692383 1.37254334-1.92034912 1.67791749.72302246.15231705 1.38858032.50556183 1.92034912 1.01925278.57144165.54091262 1.02288819 1.19612884 1.32504273 1.92311477.29962158.72406006.45455932 1.49992752.4560852 2.28369904.01657105 1.08605194-.23928833 2.15890884-.74414062 3.12025452-.50317383.93078613-1.25656128 1.70189285-2.1748047 2.22600555-1.0212097.58808136-2.18280028.88720703-3.36062621.86540222h-7.92144776c-.27133178.00703049-.53295898-.10126495-.72012329-.29808426-.19656372-.18745804-.3046875-.44945144-.29766845-.72116852l.15362548-19.45711517c-.00665283-.26221847.09393311-.51578522.27844239-.70193481zm9.328125 8.21170044c.44006347-.28639222.78839111-.69366456 1.00338745-1.17309952.23297119-.52634812.34768677-1.09749604.33605957-1.67311096.00714111-.56024933-.14611817-1.11082459-.44168091-1.58657074-.31732178-.4548607-.75439453-.8126793-1.26263428-1.03367234-.55841064-.23232269-1.15722656-.35160446-1.76190185-.35097122h-4.56085205v6.25012589h5.16574096c.53884888.00953674 1.06845093-.14103318 1.5218811-.43270111zm2.0355835 8.4953575c-.2749939.54093934-.69573975.99395371-1.21463013 1.30771638-.53689576.31926727-1.15200806.48242187-1.77630616.4711647h-5.73226928v-7.28860473h5.64105224c.63684082-.0060997 1.26080323.17984771 1.79071045.5336647.53030396.35420227.96420288.83500671 1.26263428 1.3990631.29934692.56230927.45599365 1.1897316.4560852 1.82696153.00857544.61024856-.13848876 1.21259689-.4272766 1.75003433z"/>
    <path fill="rgb(0,0,0)" fill-rule="evenodd" d="M186.0342575 23.25499269c.21462613-.00435796.42326676.07099768.58570786.21154263.1742386.16011234.30197417.36445087.36966807.59135782.1326833.37655763.31169454.73509488.53289813 1.06732873.46494525.72065505 1.08294704 1.32969572 1.8099333 1.78368902.70514346.46199256 1.52899428.70916916 2.37163672.7115525.73701854.01193247 1.46775629-.13737863 2.1411943-.43750863.59426843-.27145317 1.11217219-.68604156 1.5074776-1.20675457.36097562-.48778381.59523863-1.05776232.68172553-1.65868655.01061529-.1006837.01061529-.20220689 0-.30289059-.00012013-.44869635-.08820169-.89300435-.25924774-1.3077181-.17435705-.3969939-.44701094-.74285209-.79214587-1.0048275-.76836488-.5966398-1.66369222-1.00793094-2.61648181-1.20194677l-2.76530923-.70193692s-5.22816274-1.32694924-5.22816274-5.60107198c-.00642261-1.11548329.32868301-2.20614254.96017681-3.12506162.64323412-.9456733 1.53103679-1.69848242 2.56847298-2.17792756 1.06330036-.50925378 2.23013823-.76435226 3.40862768-.745207 1.2162848-.02706317 2.42233628.22798693 3.5238489.745207.98985911.46348375 1.82384067 1.20512422 2.40044204 2.13465747.43259028.7361436.705751 1.55516603.80174764 2.40389356.03674218.23492784-.0317549.47413288-.18723448.65385904-.1638599.18747428-.3880479.3116353-.6337167.35096846l-.84975648.15384919c-.0654279.0069627-.13140835.0069627-.19683624 0-.2229819.00242044-.43817194-.08205534-.60011051-.23558157-.1766978-.17383336-.30140427-.39363233-.3600663-.6346279-.08195375-.33636907-.20956493-.6598999-.37926985-.96155742-.34825379-.59680558-.84431654-1.0935816-1.44026522-1.44233613-.6326941-.36696155-1.35248253-.55630226-2.08358368-.54808773-.68876573-.00334412-1.36953996.1477915-1.99236689.44231641-.58669628.279819-1.09357457.70310051-1.4738714 1.2307935-.35695942.50265635-.54829533 1.10438221-.54730079 1.72118779 0 0 0 2.22119764 3.05816315 2.9856358l2.7989154.68270576s2.88053045.76443815 4.34480009 2.26927552c.93813776.96535986 1.45603223 2.2636865 1.44026522 3.61064811.00756721.28981845-.01333717.5796799-.0624115.86540168-.12135735 1.04452686-.5136285 2.03904634-1.13780952 2.88467227-.64739191.85611478-1.49922812 1.53558782-2.47725618 1.9760005-1.11196848.50468977-2.3224376.75435896-3.54305244.73078364-1.01691653-.00149263-2.02579338-.18045563-2.981349-.52885658-.89970718-.30938766-1.72649095-.8002805-2.42924734-1.44233614-.64204993-.59505603-1.16364435-1.3083826-1.5362829-2.10100296-.24617308-.50894365-.40830672-1.054496-.4800884-1.61541647v-.13942583c-.00156695-.19915889.07218507-.39153337.20643801-.53847215.13966653-.1610021.3288189-.27093587.53769902-.31250616l.80654852-.19711928c.06489834-.01624531.1306-.02908358.19683624-.0384623z"/>
  </g>
</svg>
