<?xml version="1.0" encoding="utf-8"?>
<!-- Generator: Adobe Illustrator 26.0.1, SVG Export Plug-In . SVG Version: 6.00 Build 0)  -->
<svg version="1.1" id="Capa_1" xmlns="http://www.w3.org/2000/svg" xmlns:xlink="http://www.w3.org/1999/xlink" x="0px" y="0px"
	 viewBox="0 0 65 65" style="enable-background:new 0 0 65 65;" xml:space="preserve">
<style type="text/css">
	.st0{opacity:0.2;}
	.st1{fill-rule:evenodd;clip-rule:evenodd;fill:#372FFF;}
</style>
<g>
	<g class="st0">
		<path class="st1" d="M10.8,0h43.3c6,0,10.8,4.9,10.8,10.8v43.3c0,6-4.9,10.8-10.8,10.8H10.8c-6,0-10.8-4.9-10.8-10.8V10.9
			c0-2.9,1.1-5.6,3.2-7.7S7.9,0,10.8,0L10.8,0z"/>
	</g>
</g>
<g>
	<path d="M41.3,51.3v-2.6c0-2.4-0.9-4.6-2.6-6.3c-0.9-0.9-1.9-1.5-3.1-2v-3c0-0.4-0.4-0.8-0.8-0.8V11.5c0-1.3-1.1-2.4-2.4-2.4
		c-1.3,0-2.4,1.1-2.4,2.4v25.1c-0.4,0-0.8,0.4-0.8,0.8v3c-3.4,1.3-5.7,4.6-5.7,8.3v2.6c-0.9,0.3-1.6,1.2-1.6,2.3
		c0,1.3,1.1,2.4,2.4,2.4h16.2c1.3,0,2.4-1.1,2.4-2.4C43,52.5,42.3,51.6,41.3,51.3z M32.5,39.8C32.5,39.8,32.5,39.8,32.5,39.8
		c-0.1,0-0.2,0-0.2,0c-0.5,0-0.9,0-1.4,0.1c0,0-0.1,0-0.1,0v-1.8h3.2V40c0,0-0.1,0-0.1,0C33.5,39.9,33,39.8,32.5,39.8z M31.6,11.5
		c0-0.4,0.4-0.8,0.8-0.8c0.4,0,0.8,0.4,0.8,0.8v25.1h-1.6V11.5z M25.2,48.7c0-3.2,2-6,5.1-7c1.1-0.3,2.2-0.4,3.3-0.2
		c0.4,0.1,0.7,0.1,1.1,0.2c1.1,0.4,2.1,1,3,1.8c1.4,1.4,2.1,3.2,2.1,5.2v2.4H25.2V48.7z M40.5,54.4H24.4c-0.4,0-0.8-0.4-0.8-0.8
		c0-0.4,0.4-0.8,0.8-0.8h16.2c0.4,0,0.8,0.4,0.8,0.8C41.3,54,41,54.4,40.5,54.4z"/>
</g>
</svg>
